{"title":"WAKE UP SID 1CD PDVD RIP[TDT] RIP@masti","uid":5114931,"size":760638572,"categoryP":"video","categoryS":"movies","magnet":"?xt=urn:btih:5087584ed953f7b69cc9b766a9000b23fee1f367&amp;dn=WAKE+UP+SID+1CD+PDVD+RIP%5BTDT%5D+RIP%40masti&amp;tr=udp%3A%2F%2Ftracker.openbittorrent.com%3A80&amp;tr=udp%3A%2F%2Fopen.demonii.com%3A1337&amp;tr=udp%3A%2F%2Ftracker.coppersurfer.tk%3A6969&amp;tr=udp%3A%2F%2Fexodus.desync.com%3A6969","seeders":0,"leechers":0,"uploader":"ankurcods","files":1,"time":1255012239,"description":"ripper                           :ANKURCODS@TDT@MT\nsource                           :pdvd\nLanguage                         :hindi\nGeneral\nComplete name                    : C:Documents and SettingsHANSALAYADesktoptorrents1.avi\nFormat                           : AVI\nFormat/Info                      : Audio Video Interleave\nFile size                        : 725 MiB\nDuration                         : 1h 57mn\nOverall bit rate                 : 861 Kbps\nWriting application              : AVI-Mux GUI 1.17.7, Aug  8 2006  20:59:17\nWriting library                  : VirtualDub build 32593/release\n\nVideo\nFormat                           : MPEG-4 Visual\nFormat profile                   : Simple@L1\nFormat settings, BVOP            : No\nFormat settings, QPel            : No\nFormat settings, GMC             : No warppoints\nFormat settings, Matrix          : Default (H.263)\nCodec ID                         : XVID\nCodec ID/Hint                    : XviD\nDuration                         : 1h 57mn\nBit rate                         : 721 Kbps\nWidth                            : 640 pixels\nHeight                           : 272 pixels\nDisplay aspect ratio             : 2.35\nFrame rate                       : 29.970 fps\nResolution                       : 24 bits\nColorimetry                      : 4:2:0\nScan type                        : Interlaced\nScan order                       : Bottom Field First\nBits/(Pixel*Frame)               : 0.138\nStream size                      : 608 MiB (84%)\nWriting library                  : FFmpeg0.4.8b4684\n\nAudio\nFormat                           : MPEG Audio\nFormat version                   : Version 1\nFormat profile                   : Layer 3\nCodec ID                         : 55\nCodec ID/Hint                    : MP3\nDuration                         : 1h 57mn\nBit rate mode                    : Constant\nBit rate                         : 128 Kbps\nChannel(s)                       : 2 channels\nSampling rate                    : 48.0 KHz\nResolution                       : 16 bits\nStream size                      : 108 MiB (15%)\nAlignment                        : Split accross interleaves\nInterleave, duration             : 33 ms (1.00 video frame)\nInterleave, preload duration     : 500 ms\nWriting library                  : LAME3.98r\nEncoding settings                : -m j -V 4 -q 2 -lowpass 17 -b 128\n\n","torrent":{"xt":"urn:btih:5087584ed953f7b69cc9b766a9000b23fee1f367","amp;dn":"WAKE+UP+SID+1CD+PDVD+RIP%5BTDT%5D+RIP%40masti","amp;tr":["udp%3A%2F%2Ftracker.openbittorrent.com%3A80","udp%3A%2F%2Fopen.demonii.com%3A1337","udp%3A%2F%2Ftracker.coppersurfer.tk%3A6969","udp%3A%2F%2Fexodus.desync.com%3A6969"],"infoHash":"5087584ed953f7b69cc9b766a9000b23fee1f367","infoHashBuffer":{"type":"Buffer","data":[80,135,88,78,217,83,247,182,156,201,183,102,169,0,11,35,254,225,243,103]},"announce":[],"urlList":[]}}